<svg width="37" height="36" viewBox="0 0 37 36" fill="none" xmlns="http://www.w3.org/2000/svg">
<g clip-path="url(#clip0_5_36)">
<path d="M29 4.5H27.5V1.5H24.5V4.5H12.5V1.5H9.5V4.5H8C6.335 4.5 5.015 5.85 5.015 7.5L5 28.5C5 30.15 6.335 31.5 8 31.5H29C30.65 31.5 32 30.15 32 28.5V7.5C32 5.85 30.65 4.5 29 4.5ZM29 28.5H8V13.5H29V28.5ZM29 10.5H8V7.5H29V10.5ZM26 18H18.5V25.5H26V18Z" fill="black"/>
</g>
<defs>
<clipPath id="clip0_5_36">
<rect width="36" height="36" fill="white" transform="translate(0.5)"/>
</clipPath>
</defs>
</svg>
