<svg width="135" height="65" viewBox="0 0 135 65" fill="none" xmlns="http://www.w3.org/2000/svg">
<g clip-path="url(#clip0_22_106)">
<path d="M29.4718 30.1638C35.1162 30.1638 39.6919 26.2992 39.6919 21.5319C39.6919 16.7646 35.1162 12.9 29.4718 12.9C23.8274 12.9 19.2517 16.7646 19.2517 21.5319C19.2517 26.2992 23.8274 30.1638 29.4718 30.1638Z" fill="#FF6584"/>
<path d="M130.769 61.4064C130.168 61.8632 129.536 62.2898 128.876 62.6842C127.31 63.6146 125.617 64.3833 123.834 64.9736C116.424 64.8231 105.532 64.0552 91.7821 63.6457C90.7565 63.3496 89.7076 63.0291 88.6353 62.6842C87.2164 62.2275 85.7566 61.7256 84.2561 61.1786C78.0242 58.9042 71.626 57.4257 65.2884 56.5424C63.9265 56.3527 62.5682 56.1901 61.2134 56.0546C32.5948 53.1639 6.20328 61.6574 3.14677 62.6842H2.85205L4.73207 59.6088L36.7209 7.27917L44.2017 23.5012L46.5892 28.6794L53.1693 21.0531L56.5668 17.1156L72.0396 32.098L76.4128 23.9408L106.69 44.81L108.379 45.9733L110.088 47.1517L110.632 47.5271L126.819 58.6844L130.769 61.4064Z" fill="#F2F2F2"/>
<path opacity="0.1" d="M33.8689 17.8182L36.9587 12.0971L41.2369 20.4279L37.5529 14.4056L33.8689 17.8182Z" fill="black"/>
<path opacity="0.1" d="M65.2885 56.5424C63.9266 56.3527 62.5683 56.1901 61.2136 56.0546L46.5894 28.6794L65.2885 56.5424Z" fill="black"/>
<path opacity="0.1" d="M53.1694 21.0531L56.5669 18.8219L72.0158 33.8776L56.3292 21.0301L53.1694 21.0531Z" fill="black"/>
<path opacity="0.1" d="M72.0393 32.0977L102.914 57.0634L98.6908 57.9046L72.0393 32.0977Z" fill="black"/>
<path d="M135 62.7344C135 64.6785 131.083 65.1212 123.834 64.9736C116.424 64.8231 105.532 64.0552 91.7822 63.6457C86.5818 63.4912 80.9715 63.3868 74.9868 63.3868C37.7073 63.3868 0 67.4187 0 62.7344C0 61.6303 1.67799 60.5764 4.73213 59.6088C13.7876 56.7402 34.9384 54.6394 60.277 54.3012C61.4297 54.2851 62.5908 54.2734 63.7602 54.266C64.9985 54.257 66.2451 54.2526 67.5 54.253C77.5739 54.253 87.1332 54.53 95.7193 55.0268C95.7466 55.0288 95.7728 55.0309 95.8001 55.0319C96.4894 55.072 97.1719 55.1135 97.8477 55.1563C98.5857 55.2035 99.3157 55.252 100.038 55.3019C100.186 55.3119 100.335 55.3219 100.482 55.333C100.589 55.34 100.696 55.348 100.802 55.3561C100.997 55.3691 101.192 55.3832 101.384 55.3982C101.391 55.398 101.398 55.3984 101.404 55.3992C101.759 55.4253 102.11 55.4514 102.46 55.4775C102.497 55.4805 102.533 55.4835 102.57 55.4855C112.725 56.2634 121.117 57.3685 126.819 58.6844C132.036 59.8878 135 61.2669 135 62.7344Z" fill="#3F3D56"/>
<path d="M8.42407 45.9883C8.42407 52.4137 13.1966 57.6131 19.0946 57.6131L8.42407 45.9883Z" fill="#3F3D56"/>
<path d="M19.0947 57.6131C19.0947 51.1155 24.4206 45.8577 31.0025 45.8577L19.0947 57.6131Z" fill="#6C63FF"/>
<path d="M12.2903 46.5708C12.2903 52.6743 15.3337 57.6131 19.0947 57.6131L12.2903 46.5708Z" fill="#6C63FF"/>
<path d="M19.0947 57.6131C19.0947 49.3106 25.2507 42.5923 32.8582 42.5923L19.0947 57.6131Z" fill="#3F3D56"/>
<path d="M16.8499 57.695C16.8499 57.695 18.3631 57.6557 18.8192 57.3814C19.2752 57.1071 21.1469 56.7796 21.2601 57.2195C21.3732 57.6594 23.5342 59.4073 21.8258 59.419C20.1173 59.4306 17.8561 59.1942 17.4009 58.96C16.9457 58.7258 16.8499 57.695 16.8499 57.695Z" fill="#A8A8A8"/>
<path opacity="0.2" d="M21.8563 59.2658C20.1478 59.2775 17.8866 59.0411 17.4314 58.8069C17.0847 58.6285 16.9466 57.9886 16.9004 57.6934C16.8684 57.6945 16.8499 57.695 16.8499 57.695C16.8499 57.695 16.9457 58.7258 17.4009 58.96C17.8561 59.1942 20.1173 59.4306 21.8258 59.419C22.3189 59.4156 22.4893 59.2674 22.4799 59.0479C22.4114 59.1805 22.2233 59.2633 21.8563 59.2658Z" fill="black"/>
<path d="M90.6599 45.085C90.6599 51.5104 95.4325 56.7097 101.33 56.7097L90.6599 45.085Z" fill="#3F3D56"/>
<path d="M101.331 56.7097C101.331 50.2121 106.656 44.9544 113.238 44.9544L101.331 56.7097Z" fill="#6C63FF"/>
<path d="M94.5261 45.6675C94.5261 51.7709 97.5695 56.7097 101.331 56.7097L94.5261 45.6675Z" fill="#6C63FF"/>
<path d="M101.331 56.7097C101.331 48.4073 107.486 41.689 115.094 41.689L101.331 56.7097Z" fill="#3F3D56"/>
<path d="M99.0857 56.7917C99.0857 56.7917 100.599 56.7523 101.055 56.478C101.511 56.2037 103.383 55.8762 103.496 56.3161C103.609 56.756 105.77 58.504 104.062 58.5156C102.353 58.5272 100.092 58.2908 99.6367 58.0567C99.1815 57.8225 99.0857 56.7917 99.0857 56.7917Z" fill="#A8A8A8"/>
<path opacity="0.2" d="M104.092 58.3625C102.384 58.3741 100.122 58.1377 99.6672 57.9035C99.3206 57.7252 99.1824 57.0852 99.1362 56.79C99.1042 56.7912 99.0857 56.7917 99.0857 56.7917C99.0857 56.7917 99.1815 57.8225 99.6367 58.0567C100.092 58.2908 102.353 58.5273 104.062 58.5156C104.555 58.5123 104.725 58.3641 104.716 58.1446C104.647 58.2772 104.459 58.36 104.092 58.3625Z" fill="black"/>
<path d="M59.3002 44.2115H57.1611V47.4321H59.3002V44.2115Z" fill="#3F3D56"/>
<path d="M58.2305 45.429C58.4617 45.429 58.6491 45.2708 58.6491 45.0755C58.6491 44.8803 58.4617 44.722 58.2305 44.722C57.9994 44.722 57.812 44.8803 57.812 45.0755C57.812 45.2708 57.9994 45.429 58.2305 45.429Z" fill="#F2F2F2"/>
<path d="M58.4899 41.4593C58.4899 41.4593 57.8389 44.6486 59.0108 44.7585C60.1826 44.8685 59.141 41.3493 59.141 41.3493L58.4899 41.4593Z" fill="#FFB9B9"/>
<path d="M59.2711 30.5717C59.2711 30.5717 57.9039 41.5143 58.2946 41.6792C58.6852 41.8442 59.7269 42.0641 59.9222 41.8992C60.1175 41.7342 60.8988 34.9707 60.8988 34.9707L60.3128 31.4515L59.2711 30.5717Z" fill="#575A89"/>
<path opacity="0.1" d="M59.2711 30.5717C59.2711 30.5717 57.9039 41.5143 58.2946 41.6792C58.6852 41.8442 59.7269 42.0641 59.9222 41.8992C60.1175 41.7342 60.8988 34.9707 60.8988 34.9707L60.3128 31.4515L59.2711 30.5717Z" fill="black"/>
<path d="M65.8794 25.6503H61.7778V29.3894H65.8794V25.6503Z" fill="#2F2E41"/>
<path d="M62.7218 27.3274C62.7218 27.3274 62.5916 29.7469 61.6801 29.9118C60.7687 30.0768 62.5265 32.8812 62.5265 32.8812L65.2609 32.6612L65.9119 29.3619C65.9119 29.3619 64.4145 29.142 64.9354 27.4374L62.7218 27.3274Z" fill="#FFB9B9"/>
<path opacity="0.1" d="M62.7218 27.3274C62.7218 27.3274 62.5916 29.7469 61.6801 29.9118C60.7687 30.0768 62.5265 32.8812 62.5265 32.8812L65.2609 32.6612L65.9119 29.3619C65.9119 29.3619 64.4145 29.142 64.9354 27.4374L62.7218 27.3274Z" fill="black"/>
<path d="M62.8521 54.9863L63.0473 55.9211L64.2193 55.7012L63.9588 54.7663L62.8521 54.9863Z" fill="#FFB9B9"/>
<path d="M66.563 53.5566L66.1724 54.5464L67.4094 55.0962L67.4745 54.2715L66.563 53.5566Z" fill="#FFB9B9"/>
<path d="M61.4847 38.7099C61.4847 38.7099 59.9222 42.559 60.2477 44.3736C60.5733 46.1882 61.8754 54.8213 61.8754 54.8213C61.8754 54.8213 63.3728 55.6461 64.2842 54.7113L63.6332 47.343C63.6332 47.343 63.7634 42.889 64.2842 43.3289C64.8051 43.7688 66.8233 48.9376 66.8233 48.9376L66.4327 53.6116C66.4327 53.6116 66.628 55.0413 67.7999 54.4364L69.4275 49.2675C69.4275 49.2675 68.9067 42.3391 68.6462 42.0641C68.3858 41.7892 66.6931 38.5999 66.6931 38.5999L61.4847 38.7099Z" fill="#2F2E41"/>
<path d="M64.0565 28.3996C65.0992 28.3996 65.9445 27.6857 65.9445 26.805C65.9445 25.9243 65.0992 25.2104 64.0565 25.2104C63.0138 25.2104 62.1685 25.9243 62.1685 26.805C62.1685 27.6857 63.0138 28.3996 64.0565 28.3996Z" fill="#FFB9B9"/>
<path d="M62.1359 30.7367C62.1359 30.7367 62.8521 31.6165 63.7635 31.0116C64.675 30.4067 65.1958 30.3517 65.1958 30.3517L66.3026 30.9016L66.0422 33.0461L66.4328 38.9848C66.4328 38.9848 61.6802 39.3148 61.4198 38.8749C61.1593 38.435 61.7453 36.5654 61.7453 36.5654L60.8989 32.5513V30.7367H62.1359Z" fill="#6C63FF"/>
<path d="M63.6333 32.3313C63.6333 32.3313 62.4615 29.307 62.0708 29.252C61.6802 29.197 60.5734 29.8568 60.5734 29.8568C60.5734 29.8568 58.9458 30.2967 58.9458 30.5717C58.9458 30.8466 59.2062 30.8466 59.2062 30.8466L60.1177 32.3313C60.1177 32.3313 60.5083 33.651 60.3781 34.5308C60.2996 35.0596 60.2778 35.5933 60.313 36.1255C60.313 36.1255 58.8807 43.3839 59.5968 43.6038C60.313 43.8238 60.313 44.0437 60.313 44.0437C60.313 44.0437 61.3547 44.5386 61.55 44.3187C61.7453 44.0987 63.6333 34.6408 63.6333 34.6408C63.6333 34.6408 64.6099 33.0461 63.6333 32.3313Z" fill="#575A89"/>
<path d="M63.8937 32.3313C63.8937 32.3313 64.4797 31.1766 64.1541 30.4067C64.1541 30.4067 64.4797 30.3518 64.6099 30.1868C64.7401 30.0218 64.6099 29.197 64.9354 29.142C65.2609 29.087 67.6698 29.142 67.8 29.252C67.9302 29.362 68.3209 30.1318 68.3209 30.1318H68.1255L66.6932 32.1114C66.6932 32.1114 67.4094 35.8505 67.2792 36.4554C67.149 37.0603 69.1672 39.5897 69.4276 39.7547C69.6881 39.9196 70.86 42.5591 70.3391 42.834C69.8183 43.1089 65.2609 44.8685 65.0656 43.9887C64.8703 43.1089 63.5031 37.8301 63.5031 37.8301C63.5031 37.8301 63.438 34.9157 63.6333 34.2009C63.8286 33.4861 63.8937 32.3313 63.8937 32.3313Z" fill="#575A89"/>
<path d="M66.9536 41.1293C66.9536 41.1293 65.5864 44.9235 66.9536 44.7585C68.3208 44.5936 67.9953 41.0194 67.9953 41.0194L66.9536 41.1293Z" fill="#FFB9B9"/>
<path d="M64.0919 55.7031C64.0919 55.7031 65.1713 55.9635 65.0942 56.5496C65.0701 56.7199 64.9932 56.8818 64.8714 57.019C64.7496 57.1562 64.5871 57.2638 64.4003 57.331C64.2873 57.3931 64.198 57.4815 64.1432 57.5855C64.0885 57.6895 64.0707 57.8047 64.0919 57.9171C64.169 58.3078 63.4751 58.8939 62.3186 58.6334C61.1621 58.3729 61.3934 58.1125 61.3934 58.1125C61.4563 57.8236 61.6499 57.5667 61.9331 57.3962C62.3957 57.1357 62.9354 56.224 62.9354 56.1589C62.9354 56.0938 63.0896 55.638 63.0896 55.638C63.0896 55.638 63.7064 55.3124 64.0919 55.7031Z" fill="#2F2E41"/>
<path d="M66.3677 54.4364C66.3677 54.4364 65.1958 54.8763 65.4562 55.4262C65.7166 55.9761 66.563 56.7459 66.6932 57.5707C66.8234 58.3955 67.9302 59.1104 68.7115 58.6705C69.4927 58.2306 68.5812 57.3508 68.5812 57.3508C68.5812 57.3508 67.6047 55.8111 67.5396 55.4812C67.4745 55.1512 67.6698 54.8213 67.2791 54.7113C66.8885 54.6014 66.3677 54.4364 66.3677 54.4364Z" fill="#2F2E41"/>
<path opacity="0.1" d="M68.093 30.7091C68.093 30.7091 67.9302 30.0768 68.1255 30.4617C68.3208 30.8466 69.7532 35.5206 68.4511 38.325C68.4511 38.325 68.3208 41.7892 68.1906 41.7892C68.0604 41.7892 66.4979 41.7342 66.563 41.3493C66.6281 40.9644 66.7583 34.7508 66.7583 34.3658C66.7583 33.9809 66.9862 31.479 66.9862 31.479L68.093 30.7091Z" fill="black"/>
<path d="M67.8 29.7469C68.0087 29.9656 68.1837 30.2058 68.3208 30.4617C68.5161 30.8466 69.9485 35.5206 68.6464 38.325C68.6464 38.325 68.5161 41.7892 68.3859 41.7892C68.2557 41.7892 66.6932 41.7342 66.7583 41.3493C66.8234 40.9644 66.9536 34.7508 66.9536 34.3658C66.9536 33.9809 66.563 31.3965 66.563 31.3965L67.8 29.7469Z" fill="#575A89"/>
<path d="M62.9921 23.9975C62.309 24.1779 61.799 24.6493 61.3236 25.1012C61.1387 25.261 60.9819 25.4423 60.8579 25.6396C60.7372 25.8912 60.6734 26.1597 60.6699 26.4311C60.6382 26.8518 60.628 27.2732 60.6395 27.6952C60.6505 28.0994 60.6798 28.5138 60.5327 28.8985C60.3904 29.2705 60.0943 29.585 59.891 29.9361C59.5665 30.4963 59.4917 31.176 59.7911 31.746C59.956 32.0598 60.2228 32.3268 60.4221 32.6259C60.7745 33.1586 60.9051 33.7758 60.7929 34.3787L61.7304 33.3529C62.3308 32.6959 62.9503 32.0037 63.1192 31.1861C63.3642 30.0002 62.6152 28.8386 62.4674 27.6413C62.4262 27.3074 62.4401 26.9469 62.6638 26.6694C62.9941 26.2599 63.7124 26.1152 63.911 25.649C63.9398 25.8442 65.3246 26.4661 65.4914 26.3451C65.594 26.5789 65.6238 26.831 65.578 27.0773C65.5322 27.3236 65.4123 27.5558 65.2297 27.7518C65.0957 27.8923 64.9309 28.0106 64.8002 28.1534C64.4616 28.5231 64.3846 29.0217 64.4324 29.4874C64.4802 29.9531 64.6389 30.4054 64.7228 30.8675C64.7938 31.3275 64.8276 31.7911 64.8242 32.255C64.8305 32.5762 64.82 32.9345 64.5534 33.1635C64.9907 33.0341 65.3902 32.8273 65.7252 32.5569C65.9071 32.3898 66.1024 32.2334 66.3097 32.089C66.7291 31.8335 67.2973 31.7577 67.6394 31.4302C67.9449 31.1377 67.9936 30.7088 67.9218 30.3235C67.8501 29.9383 67.6751 29.5718 67.5871 29.189C67.4759 28.7021 67.507 28.1996 67.6777 27.7252C67.8022 27.3806 68.001 27.0484 68.0253 26.6887C68.0749 25.955 67.4051 25.3413 66.7611 24.8472C65.7964 24.1068 64.3024 23.6516 62.9921 23.9975Z" fill="#2F2E41"/>
<path d="M118.291 10.4754C117.713 10.6554 116.7 10.8026 115.527 10.9215C112.338 11.2448 107.967 11.3595 107.967 11.3595C107.967 11.3595 85.5034 12.9332 68.6664 7.08061C68.6664 7.08061 66.2173 5.99596 68.4922 4.53685C68.8417 4.31848 69.2135 4.12676 69.6031 3.96396C69.6031 3.96396 69.6125 3.95587 69.6312 3.94083C69.8896 3.73899 70.1689 3.55713 70.4658 3.39744C71.3379 2.92128 72.8109 2.35633 74.6033 2.61221L118.822 8.6532C118.822 8.6532 120.437 9.80579 118.291 10.4754Z" fill="#F2F2F2"/>
<path d="M109.479 7.73784L118.737 2.19022L122.817 2.78619L118.822 8.65311C118.822 8.65311 109.586 8.71518 109.479 7.73784Z" fill="#F2F2F2"/>
<path d="M86.1729 4.36786L104.612 0L107.585 0.524541L99.2554 3.68925L96.6516 6.14915L86.1729 4.36786Z" fill="#F2F2F2"/>
<path d="M115.527 10.9215C112.338 11.2448 107.967 11.3595 107.967 11.3595C107.967 11.3595 85.5034 12.9332 68.6664 7.0806C68.6664 7.0806 66.2173 5.99595 68.4922 4.53683L68.4999 4.5635C68.4999 4.5635 72.1327 6.63735 89.491 8.36894L115.527 10.9215Z" fill="#F2F2F2"/>
<path d="M112.563 10.8016L120.808 13.6445L122.879 13.4502L117.947 10.3202C117.947 10.3202 111.983 9.24588 112.563 10.8016Z" fill="#F2F2F2"/>
<path d="M71.4864 4.86718C71.0927 4.873 70.1916 4.31556 69.6313 3.94082C69.8898 3.73898 70.1691 3.55712 70.466 3.39743C70.9176 3.69019 71.7215 4.16422 72.1684 4.14734C72.8134 4.12295 72.0785 4.85853 71.4864 4.86718Z" fill="#F2F2F2"/>
<path d="M108.939 20.6295L103.646 20.8632L88.7651 12.3878L86.0026 10.8144L84.6599 10.0497C87.1777 8.25237 97.4488 10.7305 97.4488 10.7305C97.6455 10.8707 97.7079 11.1036 97.6989 11.3608C97.682 11.8428 97.4141 12.4101 97.3107 12.6119C97.2859 12.6606 97.2706 12.688 97.2706 12.688L108.939 20.6295Z" fill="#F2F2F2"/>
<path d="M118.291 10.4754C117.713 10.6554 116.7 10.8026 115.527 10.9215C112.338 11.2448 107.967 11.3595 107.967 11.3595C107.967 11.3595 85.5034 12.9332 68.6664 7.08061C68.6664 7.08061 66.2173 5.99596 68.4922 4.53685C68.8417 4.31848 69.2135 4.12676 69.6031 3.96396C69.6031 3.96396 69.6125 3.95587 69.6312 3.94083C69.8896 3.73899 70.1689 3.55713 70.4658 3.39744C71.3379 2.92128 72.8109 2.35633 74.6033 2.61221L118.822 8.6532C118.822 8.6532 120.437 9.80579 118.291 10.4754Z" fill="#3F3D56"/>
<path d="M109.479 7.73784L118.737 2.19022L122.817 2.78619L118.822 8.65311C118.822 8.65311 109.586 8.71518 109.479 7.73784Z" fill="#3F3D56"/>
<path d="M86.1729 4.36786L104.612 0L107.585 0.524541L99.2554 3.68925L96.6516 6.14915L86.1729 4.36786Z" fill="#3F3D56"/>
<path d="M115.527 10.9215C112.338 11.2448 107.967 11.3595 107.967 11.3595C107.967 11.3595 85.5034 12.9332 68.6664 7.0806C68.6664 7.0806 66.2173 5.99595 68.4922 4.53683L68.4999 4.5635C68.4999 4.5635 72.1327 6.63735 89.491 8.36894L115.527 10.9215Z" fill="#6C63FF"/>
<path d="M112.563 10.8016L120.808 13.6445L122.879 13.4502L117.947 10.3202C117.947 10.3202 111.983 9.24588 112.563 10.8016Z" fill="#3F3D56"/>
<path d="M71.4864 4.86718C71.0927 4.873 70.1916 4.31556 69.6313 3.94082C69.8898 3.73898 70.1691 3.55712 70.466 3.39743C70.9176 3.69019 71.7215 4.16422 72.1684 4.14734C72.8134 4.12295 72.0785 4.85853 71.4864 4.86718Z" fill="#6C63FF"/>
<path d="M108.939 20.6295L103.646 20.8632L88.7651 12.3878L86.0026 10.8144L84.6599 10.0497C87.1777 8.25237 97.4488 10.7305 97.4488 10.7305C97.6455 10.8707 97.7079 11.1036 97.6989 11.3608C97.682 11.8428 97.4141 12.4101 97.3107 12.6119C97.2859 12.6606 97.2706 12.688 97.2706 12.688L108.939 20.6295Z" fill="#3F3D56"/>
</g>
<defs>
<clipPath id="clip0_22_106">
<rect width="135" height="65" fill="white"/>
</clipPath>
</defs>
</svg>
