<svg width="615" height="391" viewBox="0 0 615 391" fill="none" xmlns="http://www.w3.org/2000/svg">
<g clip-path="url(#clip0_1_3)">
<path d="M496.415 231.112C490.772 233.162 480.869 234.822 469.412 236.141C438.258 239.731 395.584 240.856 395.584 240.856C395.584 240.856 176.156 258.015 12.0838 189.563C12.0838 189.563 -11.7683 176.912 10.493 160.142C13.9206 157.636 17.5623 155.438 21.3758 153.572L21.6481 153.302C24.1822 150.982 26.9187 148.893 29.825 147.06C38.3673 141.592 52.7784 135.132 70.2698 138.173L501.704 210.063C501.704 210.063 517.411 223.466 496.415 231.112Z" fill="#3F3D56"/>
<path d="M410.537 199.049L501.227 135.331L541.031 142.411L501.704 210.063C501.704 210.063 411.521 210.358 410.537 199.049Z" fill="#3F3D56"/>
<path d="M183.163 159.003L363.443 109.349L392.434 115.553L310.933 151.763L285.382 180.087L183.163 159.003Z" fill="#3F3D56"/>
<path d="M469.412 236.141C438.258 239.731 395.584 240.856 395.584 240.856C395.584 240.856 176.156 258.015 12.0838 189.563C12.0838 189.563 -11.7683 176.912 10.493 160.142L10.5665 160.453C10.5665 160.453 45.9251 184.602 215.314 205.422L469.412 236.141Z" fill="#6C63FF"/>
<path d="M440.479 234.62L520.816 267.875L541.048 265.727L493.073 229.303C493.073 229.303 434.896 216.599 440.479 234.62Z" fill="#3F3D56"/>
<path d="M39.7371 164.104C35.8967 164.149 27.1283 157.665 21.6769 153.302C24.211 150.982 26.9476 148.893 29.8539 147.06C34.2488 150.466 42.0703 155.983 46.4362 155.79C52.7395 155.56 45.5208 164.027 39.7371 164.104Z" fill="#6C63FF"/>
<path d="M404.557 348.088L352.864 350.548L208.026 251.862L181.139 233.538L168.08 224.635C192.758 203.988 292.91 233.098 292.91 233.098C294.822 234.727 295.421 237.424 295.32 240.399C295.127 245.97 292.478 252.498 291.458 254.846C291.213 255.421 291.062 255.726 291.062 255.726L404.557 348.088Z" fill="#3F3D56"/>
<path d="M234.598 296.472L225.605 302.105L231.083 292.251C229.551 291.017 227.651 290.328 225.684 290.294L225.54 290.293C224.918 290.302 224.297 290.253 223.684 290.146L220.642 292.058L221.95 289.699C219.805 288.935 217.956 287.513 216.665 285.637L211.223 289.072L214.677 282.848C211.524 279.02 207.257 276.664 202.546 276.642C196.901 276.615 191.857 279.948 188.586 285.17C187.616 286.733 186.249 288.012 184.625 288.876C183 289.739 181.176 290.157 179.337 290.086L179.038 290.085C172.805 290.055 167.72 297.096 167.679 305.817C167.638 314.537 172.655 321.626 178.888 321.655C180.258 321.658 181.607 321.325 182.82 320.688C184.947 319.668 187.27 319.122 189.628 319.087C191.986 319.053 194.324 319.53 196.48 320.487C198.304 321.311 200.28 321.742 202.281 321.752C204.282 321.761 206.262 321.349 208.093 320.542C210.24 319.623 212.559 319.177 214.894 319.232C217.228 319.288 219.524 319.845 221.624 320.865C222.823 321.498 224.156 321.835 225.512 321.847C231.745 321.876 236.829 314.835 236.87 306.115C236.931 302.761 236.15 299.446 234.598 296.472Z" fill="#F2F2F2"/>
<path opacity="0.03" d="M217.624 319.491C214.37 318.86 211.003 319.209 207.949 320.495C206.12 321.304 204.14 321.717 202.14 321.708C200.14 321.698 198.164 321.266 196.342 320.44C194.187 319.481 191.849 319.002 189.49 319.036C187.131 319.071 184.808 319.619 182.682 320.641C181.467 321.277 180.116 321.609 178.745 321.609C173.209 321.582 168.629 315.978 167.706 308.614C168.818 307.815 169.762 306.806 170.488 305.645C173.759 300.43 178.803 297.097 184.448 297.124C190.092 297.15 195.053 300.461 198.269 305.667C199.228 307.236 200.577 308.53 202.185 309.424C203.792 310.318 205.603 310.781 207.442 310.769L207.586 310.769C211.991 310.779 215.791 314.326 217.624 319.491Z" fill="black"/>
<path d="M487.758 290.171L478.765 295.804L484.243 285.95C482.711 284.715 480.811 284.027 478.844 283.993L478.7 283.992C478.078 284.001 477.456 283.952 476.844 283.845L473.802 285.757L475.11 283.398C472.965 282.634 471.116 281.212 469.825 279.336L464.383 282.771L467.837 276.547C464.684 272.719 460.416 270.363 455.706 270.341C450.061 270.314 445.017 273.647 441.746 278.869C440.776 280.432 439.409 281.711 437.785 282.575C436.16 283.438 434.336 283.856 432.497 283.785L432.197 283.784C425.964 283.754 420.88 290.795 420.839 299.516C420.798 308.236 425.815 315.325 432.048 315.354C433.418 315.356 434.767 315.024 435.979 314.387C438.106 313.367 440.429 312.821 442.788 312.786C445.146 312.752 447.484 313.229 449.64 314.186C451.463 315.01 453.44 315.441 455.441 315.45C457.441 315.46 459.422 315.048 461.253 314.241C463.4 313.322 465.719 312.875 468.054 312.931C470.388 312.987 472.683 313.544 474.784 314.564C475.983 315.197 477.316 315.534 478.672 315.546C484.905 315.575 489.989 308.534 490.03 299.814C490.091 296.46 489.309 293.145 487.758 290.171V290.171Z" fill="#F2F2F2"/>
<path opacity="0.03" d="M470.783 313.19C467.53 312.558 464.163 312.908 461.109 314.194C459.279 315.003 457.3 315.416 455.3 315.407C453.299 315.397 451.324 314.965 449.502 314.139C447.347 313.18 445.008 312.701 442.649 312.735C440.291 312.77 437.967 313.317 435.841 314.34C434.626 314.976 433.275 315.308 431.904 315.307C426.369 315.281 421.788 309.677 420.866 302.313C421.977 301.514 422.922 300.505 423.648 299.344C426.919 294.129 431.962 290.796 437.607 290.822C443.252 290.849 448.213 294.16 451.428 299.366C452.391 300.939 453.744 302.236 455.357 303.13C456.969 304.025 458.786 304.485 460.63 304.468L460.774 304.468C465.151 304.477 468.951 308.025 470.783 313.19Z" fill="black"/>
<path d="M488.652 101.001L479.659 106.634L485.137 96.7796C483.605 95.5449 481.705 94.8561 479.738 94.822L479.594 94.8213C478.972 94.8305 478.35 94.7813 477.738 94.6741L474.696 96.5861L476.004 94.2276C473.859 93.4631 472.01 92.0416 470.719 90.1653L465.277 93.6001L468.731 87.376C465.578 83.5488 461.311 81.1927 456.6 81.1705C450.955 81.1438 445.911 84.4767 442.64 89.6981C441.67 91.2618 440.303 92.5404 438.679 93.404C437.054 94.2676 435.23 94.6853 433.391 94.6145L433.092 94.613C426.859 94.5836 421.774 101.625 421.733 110.345C421.692 119.065 426.709 126.154 432.942 126.184C434.312 126.186 435.661 125.854 436.874 125.216C439.001 124.196 441.323 123.65 443.682 123.616C446.04 123.581 448.378 124.059 450.534 125.015C452.355 125.844 454.331 126.28 456.332 126.294C458.332 126.309 460.314 125.901 462.147 125.099C464.294 124.18 466.613 123.734 468.948 123.79C471.282 123.845 473.577 124.402 475.678 125.423C476.877 126.056 478.21 126.392 479.566 126.404C485.799 126.434 490.883 119.392 490.924 110.672C490.99 107.309 490.208 103.983 488.652 101.001V101.001Z" fill="#F2F2F2"/>
<path opacity="0.03" d="M471.677 124.019C468.424 123.388 465.057 123.737 462.003 125.023C460.174 125.832 458.194 126.246 456.194 126.236C454.194 126.227 452.218 125.795 450.396 124.969C448.241 124.009 445.903 123.53 443.544 123.565C441.185 123.599 438.862 124.147 436.735 125.169C435.52 125.805 434.17 126.137 432.798 126.137C427.263 126.111 422.683 120.506 421.76 113.142C422.872 112.343 423.816 111.335 424.542 110.174C427.813 104.958 432.857 101.625 438.501 101.652C444.146 101.679 449.107 104.99 452.323 110.196C453.285 111.769 454.638 113.066 456.251 113.96C457.864 114.854 459.68 115.315 461.524 115.297L461.668 115.298C466.045 115.307 469.845 118.855 471.677 124.019Z" fill="black"/>
<path d="M118.564 78.8401L114.082 81.6508L116.816 76.7383C116.053 76.1189 115.104 75.7733 114.122 75.7566L114.052 75.7563C113.742 75.758 113.431 75.7334 113.124 75.6827L111.609 76.6329L112.261 75.4825C111.19 75.1018 110.267 74.393 109.623 73.4571L106.911 75.1746L108.656 72.0741C107.941 71.1402 107.027 70.3776 105.98 69.8419C104.933 69.3061 103.78 69.0107 102.604 68.9772C99.7905 68.9639 97.2744 70.6246 95.6649 73.2297C95.1805 74.0117 94.497 74.6509 93.6844 75.0818C92.8719 75.5127 91.9594 75.7199 91.0405 75.6821L90.8905 75.6814C87.7827 75.6667 85.2463 79.1844 85.2258 83.533C85.2052 87.8817 87.7083 91.4174 90.8161 91.4321C91.4996 91.4331 92.1732 91.2681 92.7788 90.9512C93.8396 90.4408 94.9988 90.1675 96.1758 90.1502C97.3527 90.1328 98.5194 90.3719 99.5948 90.8507C100.5 91.2585 101.482 91.4717 102.475 91.4764C103.468 91.4811 104.451 91.2772 105.361 90.878C106.432 90.4192 107.589 90.1964 108.754 90.2248C109.919 90.2532 111.064 90.5321 112.112 91.0425C112.71 91.3555 113.373 91.5226 114.047 91.5304C117.155 91.5451 119.691 88.0331 119.712 83.6845C119.742 81.999 119.347 80.333 118.564 78.8401Z" fill="#F2F2F2"/>
<path opacity="0.03" d="M110.097 90.3236C108.474 90.0046 106.792 90.1795 105.269 90.8256C104.358 91.2225 103.376 91.4261 102.383 91.4234C101.379 91.4183 100.387 91.1993 99.474 90.7809C98.398 90.3041 97.2312 90.0666 96.0544 90.085C94.8776 90.1033 93.7188 90.377 92.658 90.8871C92.0544 91.204 91.3828 91.3691 90.7011 91.3681C87.9392 91.3551 85.6518 88.5586 85.1905 84.8882C85.7434 84.4865 86.2153 83.9839 86.5814 83.4068C88.2082 80.8018 90.7243 79.1411 93.5208 79.1543C96.3172 79.1675 98.8061 80.8346 100.42 83.4203C100.901 84.2065 101.578 84.8542 102.384 85.2999C103.191 85.7456 104.099 85.9739 105.021 85.9624L105.096 85.9628C107.269 85.9731 109.181 87.747 110.097 90.3236Z" fill="black"/>
<path d="M515.08 362.746L510.598 365.557L513.331 360.644C512.569 360.025 511.62 359.679 510.638 359.663L510.568 359.662C510.258 359.664 509.947 359.64 509.64 359.589L508.125 360.539L508.776 359.389C507.706 359.008 506.783 358.299 506.139 357.363L503.427 359.081L505.171 355.98C504.457 355.046 503.542 354.284 502.496 353.748C501.449 353.212 500.296 352.917 499.12 352.883C496.306 352.87 493.79 354.531 492.181 357.136C491.696 357.918 491.013 358.557 490.2 358.988C489.388 359.419 488.475 359.626 487.556 359.588L487.407 359.588C484.299 359.573 481.762 363.091 481.742 367.439C481.721 371.788 484.224 375.324 487.332 375.338C488.016 375.339 488.689 375.174 489.295 374.857C490.356 374.347 491.515 374.074 492.692 374.056C493.869 374.039 495.035 374.278 496.111 374.757C497.016 375.165 497.998 375.378 498.991 375.383C499.984 375.387 500.967 375.183 501.877 374.784C502.948 374.325 504.105 374.103 505.27 374.131C506.435 374.159 507.58 374.438 508.628 374.949C509.226 375.262 509.889 375.429 510.563 375.437C513.671 375.451 516.207 371.939 516.228 367.591C516.258 365.905 515.863 364.239 515.08 362.746V362.746Z" fill="#F2F2F2"/>
<path opacity="0.03" d="M506.613 374.23C504.99 373.911 503.308 374.086 501.785 374.732C500.874 375.129 499.892 375.332 498.899 375.33C497.895 375.324 496.903 375.105 495.99 374.687C494.914 374.21 493.747 373.973 492.57 373.991C491.394 374.009 490.235 374.283 489.174 374.793C488.57 375.11 487.899 375.275 487.217 375.274C484.455 375.261 482.168 372.465 481.707 368.794C482.259 368.393 482.731 367.89 483.097 367.313C484.724 364.708 487.24 363.047 490.037 363.061C492.833 363.074 495.322 364.741 496.936 367.326C497.417 368.113 498.094 368.76 498.9 369.206C499.707 369.652 500.615 369.88 501.537 369.869L501.612 369.869C503.785 369.879 505.697 371.653 506.613 374.23Z" fill="black"/>
<path d="M99.8625 375.779L95.3805 378.59L98.1137 373.677C97.3508 373.058 96.4023 372.712 95.4199 372.696L95.3507 372.695C95.0398 372.697 94.7294 372.672 94.4227 372.622L92.9075 373.572L93.5587 372.421C92.4885 372.041 91.5657 371.332 90.9217 370.396L88.2093 372.114L89.9538 369.013C89.2389 368.079 88.3247 367.317 87.2779 366.781C86.2311 366.245 85.0779 365.95 83.9025 365.916C81.0887 365.903 78.5726 367.564 76.9631 370.169C76.4787 370.951 75.7952 371.59 74.9827 372.021C74.1701 372.452 73.2576 372.659 72.3387 372.621L72.1888 372.62C69.0809 372.606 66.5446 376.123 66.524 380.472C66.5034 384.821 69.0065 388.356 72.1143 388.371C72.7979 388.372 73.4714 388.207 74.0771 387.89C75.1379 387.38 76.297 387.107 77.474 387.089C78.651 387.072 79.8176 387.311 80.893 387.79C81.7987 388.198 82.7799 388.411 83.7731 388.415C84.7663 388.42 85.7494 388.216 86.6589 387.817C87.7302 387.358 88.8876 387.135 90.0525 387.164C91.2174 387.192 92.3626 387.471 93.4102 387.982C94.0078 388.295 94.6709 388.462 95.3453 388.469C98.4531 388.484 100.99 384.972 101.01 380.624C101.04 378.938 100.645 377.272 99.8625 375.779Z" fill="#F2F2F2"/>
<path opacity="0.03" d="M91.3955 387.263C89.772 386.944 88.0902 387.119 86.5669 387.765C85.6567 388.162 84.674 388.365 83.6811 388.362C82.6769 388.357 81.6853 388.138 80.7723 387.72C79.6962 387.243 78.5294 387.006 77.3526 387.024C76.1758 387.042 75.017 387.316 73.9563 387.826C73.3527 388.143 72.681 388.308 71.9993 388.307C69.2374 388.294 66.95 385.498 66.4888 381.827C67.0416 381.426 67.5135 380.923 67.8796 380.346C69.5064 377.741 72.0225 376.08 74.819 376.093C77.6155 376.107 80.1043 377.774 81.7181 380.359C82.199 381.146 82.8759 381.793 83.6824 382.239C84.489 382.685 85.3975 382.913 86.3189 382.901L86.3939 382.902C88.5676 382.912 90.4794 384.686 91.3955 387.263Z" fill="black"/>
<path d="M307.975 21.1317L298.982 26.7644L304.461 16.9105C302.928 15.6758 301.029 14.987 299.061 14.9529L298.917 14.9522C298.295 14.9614 297.674 14.9121 297.061 14.805L294.019 16.717L295.328 14.3585C293.183 13.594 291.333 12.1725 290.042 10.2962L284.6 13.731L288.054 7.50689C284.901 3.67965 280.634 1.32363 275.923 1.30136C270.278 1.27468 265.235 4.60753 261.964 9.82898C260.994 11.3926 259.627 12.6713 258.002 13.5349C256.377 14.3985 254.553 14.8161 252.715 14.7453L252.415 14.7439C246.182 14.7145 241.098 21.7556 241.056 30.4759C241.015 39.1962 246.033 46.2852 252.266 46.3146C253.635 46.3168 254.985 45.9846 256.197 45.347C258.324 44.3272 260.647 43.7812 263.005 43.7465C265.364 43.7119 267.702 44.1894 269.858 45.1462C271.679 45.975 273.654 46.4108 275.655 46.4252C277.656 46.4396 279.637 46.0324 281.47 45.23C283.617 44.3112 285.936 43.8647 288.271 43.9205C290.605 43.9763 292.901 44.5332 295.001 45.5535C296.2 46.1865 297.533 46.5231 298.889 46.535C305.122 46.5645 310.206 39.5233 310.247 30.803C310.313 27.4396 309.532 24.1138 307.975 21.1317V21.1317Z" fill="#F2F2F2"/>
<path opacity="0.03" d="M291.001 44.1503C287.748 43.5187 284.38 43.8682 281.326 45.1543C279.497 45.9633 277.517 46.3765 275.517 46.3671C273.517 46.3576 271.541 45.9257 269.719 45.0994C267.564 44.14 265.226 43.661 262.867 43.6956C260.508 43.7303 258.185 44.2778 256.059 45.3002C254.844 45.9359 253.493 46.2679 252.122 46.2678C246.586 46.2416 242.006 40.637 241.083 33.2733C242.195 32.474 243.14 31.4657 243.865 30.3046C247.136 25.089 252.18 21.7561 257.825 21.7828C263.47 21.8095 268.43 25.1204 271.646 30.3264C272.608 31.8997 273.962 33.1967 275.574 34.0908C277.187 34.9849 279.004 35.4456 280.848 35.428L280.992 35.4287C285.368 35.4378 289.168 38.9855 291.001 44.1503Z" fill="black"/>
<path d="M613.09 121.55L608.608 124.361L611.341 119.448C610.578 118.829 609.63 118.484 608.648 118.467L608.578 118.466C608.268 118.468 607.957 118.444 607.65 118.393L606.135 119.343L606.786 118.193C605.716 117.812 604.793 117.103 604.149 116.167L601.437 117.885L603.181 114.784C602.467 113.85 601.552 113.088 600.506 112.552C599.459 112.016 598.306 111.721 597.13 111.687C594.316 111.674 591.8 113.335 590.191 115.94C589.706 116.722 589.023 117.361 588.21 117.792C587.398 118.223 586.485 118.43 585.566 118.392L585.416 118.392C582.309 118.377 579.772 121.895 579.752 126.243C579.731 130.592 582.234 134.128 585.342 134.142C586.025 134.143 586.699 133.978 587.305 133.661C588.366 133.151 589.525 132.878 590.702 132.86C591.879 132.843 593.045 133.082 594.121 133.561C595.026 133.969 596.008 134.182 597.001 134.187C597.994 134.191 598.977 133.987 599.887 133.588C600.958 133.129 602.115 132.907 603.28 132.935C604.445 132.963 605.59 133.242 606.638 133.753C607.235 134.066 607.899 134.233 608.573 134.241C611.681 134.255 614.217 130.743 614.238 126.395C614.268 124.709 613.873 123.043 613.09 121.55V121.55Z" fill="#F2F2F2"/>
<path opacity="0.03" d="M604.623 133.034C603 132.715 601.318 132.89 599.794 133.536C598.884 133.933 597.902 134.136 596.909 134.134C595.914 134.125 594.933 133.906 594.029 133.491C592.953 133.014 591.786 132.777 590.609 132.795C589.432 132.814 588.273 133.087 587.213 133.598C586.609 133.914 585.937 134.08 585.256 134.079C582.494 134.065 580.206 131.269 579.745 127.599C580.298 127.197 580.77 126.694 581.136 126.117C582.763 123.512 585.279 121.851 588.075 121.865C590.872 121.878 593.361 123.545 594.975 126.131C595.453 126.913 596.125 127.558 596.926 128.003C597.727 128.448 598.63 128.679 599.546 128.673L599.621 128.673C601.795 128.683 603.707 130.457 604.623 133.034Z" fill="black"/>
</g>
<defs>
<clipPath id="clip0_1_3">
<rect width="613" height="388" fill="white" transform="translate(1.83405) rotate(0.270829)"/>
</clipPath>
</defs>
</svg>
