<svg width="37" height="37" viewBox="0 0 37 37" fill="none" xmlns="http://www.w3.org/2000/svg">
<g clip-path="url(#clip0_3_93)">
<path d="M35.4803 35.4811C36.839 34.1224 36.8389 31.9197 35.4803 30.5611L28.1196 23.2003L32.1727 11.2871C32.2288 11.1225 32.2249 10.9434 32.1618 10.7812L30.0444 5.33193C30.0102 5.22064 29.9488 5.11583 29.8608 5.02762C29.5739 4.74075 29.1101 4.73898 28.821 5.02199C28.8187 5.02418 28.8164 5.02658 28.8141 5.02887C28.7796 5.06332 28.7483 5.10143 28.7206 5.14308L21.281 16.3616L13.6841 8.76478L15.3036 4.00426C15.3339 3.91521 15.3319 3.81834 15.2978 3.73054L14.1555 0.790734C14.1198 0.71223 14.0931 0.667132 14.043 0.617128C13.8872 0.46127 13.645 0.460852 13.4888 0.616084C13.4879 0.616815 13.4871 0.61765 13.4866 0.618381C13.4678 0.636963 13.4509 0.657633 13.4361 0.680182L9.69669 6.31886C8.83952 6.34297 7.98944 6.6812 7.33511 7.33554C6.68088 7.98977 6.34265 8.83984 6.31864 9.69701L0.679852 13.4365C0.555626 13.519 0.487247 13.6641 0.503323 13.8127C0.519295 13.9612 0.616901 14.0885 0.756165 14.1426L3.73021 15.2982C3.81791 15.3323 3.91499 15.3343 4.00404 15.3041L8.76456 13.6845L16.3613 21.2813L5.14286 28.7211C4.91278 28.8739 4.78678 29.142 4.81642 29.4166C4.84607 29.6912 5.02636 29.9264 5.28368 30.0264L10.781 32.1624C10.9431 32.2253 11.1223 32.2292 11.2869 32.1731L23.2002 28.1202L30.5609 35.4808C31.9188 36.8396 34.1216 36.8396 35.4803 35.4811Z" fill="#1E2019"/>
</g>
<defs>
<clipPath id="clip0_3_93">
<rect width="36" height="36" fill="white" transform="translate(36.5 0.5) rotate(90)"/>
</clipPath>
</defs>
</svg>
