<svg width="37" height="37" viewBox="0 0 37 37" fill="none" xmlns="http://www.w3.org/2000/svg">
<g clip-path="url(#clip0_3_75)">
<path d="M35.4811 1.52019C34.1225 0.161513 31.9198 0.161617 30.5611 1.52019L23.2003 8.88083L11.2871 4.82777C11.1225 4.77171 10.9434 4.77558 10.7812 4.83863L5.33192 6.95603C5.22064 6.99027 5.11583 7.05166 5.02762 7.13966C4.74075 7.42653 4.73897 7.89035 5.02198 8.17952C5.02417 8.18181 5.02657 8.18411 5.02887 8.18641C5.06332 8.22086 5.10142 8.25217 5.14308 8.27984L16.3616 15.7195L8.76478 23.3164L4.00425 21.6968C3.91521 21.6666 3.81833 21.6685 3.73054 21.7027L0.790726 22.845C0.712223 22.8807 0.667125 22.9074 0.617121 22.9575C0.461262 23.1132 0.460844 23.3554 0.616077 23.5117C0.616808 23.5125 0.617643 23.5134 0.618373 23.5139C0.636955 23.5327 0.657625 23.5496 0.680174 23.5643L6.31885 27.3038C6.34297 28.161 6.6812 29.011 7.33554 29.6654C7.98977 30.3196 8.83984 30.6578 9.69701 30.6818L13.4365 36.3206C13.519 36.4448 13.6642 36.5132 13.8127 36.4972C13.9613 36.4812 14.0885 36.3836 14.1426 36.2443L15.2982 33.2703C15.3324 33.1826 15.3343 33.0855 15.3041 32.9964L13.6845 28.2359L21.2813 20.6391L28.7212 31.8576C28.8739 32.0877 29.142 32.2137 29.4166 32.184C29.6912 32.1544 29.9264 31.9741 30.0264 31.7168L32.1624 26.2195C32.2253 26.0573 32.2292 25.8782 32.1731 25.7136L28.1202 13.8002L35.4808 6.4396C36.8396 5.08166 36.8396 2.87886 35.4811 1.52019Z" fill="#1E2019"/>
</g>
<defs>
<clipPath id="clip0_3_75">
<rect width="36" height="36" fill="white" transform="translate(0.5 0.5)"/>
</clipPath>
</defs>
</svg>
