<svg width="37" height="37" viewBox="0 0 37 37" fill="none" xmlns="http://www.w3.org/2000/svg">
<g clip-path="url(#clip0_3_96)">
<path d="M5.62134 15.5H23C23.8284 15.5 24.5 14.8284 24.5 14C24.5 13.1716 23.8284 12.5 23 12.5H5.62134L9.06068 9.06069C9.64645 8.47491 9.64645 7.52513 9.06068 6.93936C8.47491 6.35359 7.52512 6.35359 6.93935 6.93936L0.939305 12.9393C0.904359 12.9743 0.871312 13.0111 0.839953 13.0493C0.82575 13.0666 0.813375 13.0849 0.800086 13.1027C0.784055 13.124 0.767531 13.1449 0.752625 13.1672C0.738351 13.1885 0.725976 13.2107 0.712898 13.2325C0.700875 13.2526 0.688219 13.2723 0.677109 13.2931C0.665156 13.3154 0.655031 13.3384 0.644344 13.3611C0.634148 13.3827 0.62339 13.404 0.61418 13.4261C0.605039 13.4483 0.597586 13.4709 0.58957 13.4934C0.581062 13.5171 0.571992 13.5404 0.56468 13.5646C0.557859 13.5871 0.552867 13.61 0.547172 13.6328C0.540914 13.6574 0.534023 13.6818 0.529031 13.707C0.523828 13.7334 0.520734 13.76 0.516937 13.7865C0.513844 13.8083 0.509625 13.8299 0.507445 13.8521C0.497742 13.9505 0.497742 14.0497 0.507445 14.1481C0.509625 14.1703 0.513773 14.1918 0.516937 14.2137C0.520734 14.2403 0.523828 14.2669 0.529101 14.2932C0.534094 14.3184 0.540984 14.3427 0.547242 14.3674C0.552937 14.3902 0.55793 14.413 0.56475 14.4355C0.572062 14.4597 0.581133 14.4831 0.58964 14.5067C0.597726 14.5292 0.605109 14.5519 0.61425 14.574C0.62339 14.5962 0.634219 14.6173 0.644414 14.6389C0.655172 14.6617 0.665297 14.6847 0.67725 14.7071C0.688359 14.7277 0.700945 14.7473 0.712969 14.7675C0.726047 14.7894 0.738422 14.8115 0.752695 14.8329C0.767531 14.8551 0.784055 14.876 0.800016 14.8973C0.813375 14.9152 0.82575 14.9335 0.840023 14.9508C0.871172 14.9888 0.904008 15.0253 0.938672 15.06C0.938953 15.0602 0.939094 15.0605 0.939375 15.0607L6.93935 21.0607C7.52512 21.6465 8.47491 21.6465 9.06068 21.0607C9.64645 20.4749 9.64645 19.5252 9.06068 18.9394L5.62134 15.5Z" fill="#1E2019"/>
<path d="M26 21.5H23C22.1705 21.5 21.5 22.172 21.5 23C21.5 23.828 22.1705 24.5 23 24.5H26C26.8295 24.5 27.5 23.828 27.5 23C27.5 22.172 26.8295 21.5 26 21.5Z" fill="#1E2019"/>
<path d="M36.1612 23.9494C36.1712 23.9373 36.1797 23.9243 36.1893 23.9119C36.2095 23.8855 36.2298 23.8593 36.2483 23.8317C36.2605 23.8133 36.2711 23.7942 36.2824 23.7755C36.2963 23.7525 36.3107 23.7298 36.3234 23.706C36.3343 23.6857 36.3434 23.6648 36.3533 23.6441C36.3644 23.6207 36.3762 23.5975 36.3862 23.5733C36.3947 23.5525 36.4016 23.5313 36.4092 23.5103C36.4183 23.4853 36.4278 23.4606 36.4355 23.435C36.4421 23.4134 36.4468 23.3914 36.4523 23.3696C36.4588 23.3441 36.4659 23.3189 36.471 23.2929C36.4762 23.2671 36.4792 23.2411 36.4829 23.2151C36.4861 23.1927 36.4904 23.1707 36.4926 23.148C36.5023 23.0496 36.5023 22.9505 36.4926 22.8521C36.4904 22.8294 36.4861 22.8074 36.4829 22.7851C36.4792 22.759 36.4762 22.733 36.471 22.7072C36.4659 22.6812 36.4588 22.656 36.4523 22.6305C36.4468 22.6087 36.4421 22.5867 36.4355 22.5651C36.4278 22.5395 36.4182 22.5149 36.4092 22.4899C36.4016 22.4689 36.3947 22.4476 36.3862 22.4269C36.3762 22.4027 36.3645 22.3795 36.3533 22.356C36.3434 22.3353 36.3343 22.3145 36.3234 22.2941C36.3107 22.2704 36.2963 22.2477 36.2824 22.2247C36.2711 22.2059 36.2605 22.1868 36.2483 22.1685C36.2298 22.1408 36.2095 22.1146 36.1893 22.0883C36.1797 22.0758 36.1712 22.0629 36.1612 22.0507C36.1289 22.0112 36.0947 21.9733 36.0585 21.9372L30.0607 15.9394C29.4749 15.3537 28.5252 15.3537 27.9394 15.9394C27.3536 16.5252 27.3536 17.475 27.9394 18.0608L31.475 21.5964C30.9055 21.8094 30.5 22.3569 30.5 23.0001C30.5 23.6433 30.9054 24.1908 31.475 24.4038L27.9394 27.9394C27.3536 28.5252 27.3536 29.4749 27.9394 30.0607C28.5252 30.6465 29.4749 30.6465 30.0607 30.0607L36.0585 24.0629C36.0947 24.0269 36.1289 23.989 36.1612 23.9494Z" fill="#1E2019"/>
<path d="M17 21.5H14C13.1705 21.5 12.5 22.172 12.5 23C12.5 23.828 13.1705 24.5 14 24.5H17C17.8295 24.5 18.5 23.828 18.5 23C18.5 22.172 17.8295 21.5 17 21.5Z" fill="#1E2019"/>
</g>
<defs>
<clipPath id="clip0_3_96">
<rect width="36" height="36" fill="white" transform="translate(0.5 0.5)"/>
</clipPath>
</defs>
</svg>
